<svg width="33" height="30" viewBox="0 0 33 30" fill="none" xmlns="http://www.w3.org/2000/svg">
<g filter="url(#filter0_d_2_476)">
<ellipse cx="16.5068" cy="11.1959" rx="12.4932" ry="10.8043" fill="#FFB400"/>
<g clip-path="url(#clip0_2_476)">
<path d="M21.3589 10.9711C21.3091 10.1444 20.9766 9.34908 20.4036 8.68595C20.229 8.84857 20.0424 9.00121 19.8449 9.14288C19.2382 9.57873 18.5601 9.93447 17.8329 10.1986C17.9343 10.3824 18.0272 10.5604 18.1092 10.7285V10.7301C18.1323 10.777 18.1546 10.8243 18.176 10.8719C19.0955 10.7826 20.0647 10.8151 21.0042 10.9249C21.1293 10.9396 21.2472 10.9554 21.3589 10.9711ZM15.6593 7.05834C16.2512 7.77954 16.797 8.5282 17.2942 9.30097C18.0369 9.04782 18.6509 8.7285 19.1453 8.37293C19.3169 8.25063 19.4784 8.11813 19.6287 7.9764C18.7548 7.34075 17.6491 6.99286 16.5071 6.99426C16.2229 6.99409 15.9393 7.01536 15.6593 7.05781V7.05834ZM11.8023 10.1439C12.2161 10.1349 12.6293 10.1134 13.0412 10.0793C14.037 10.0023 15.0243 9.85796 15.994 9.64761C15.4872 8.88617 14.94 8.14536 14.3542 7.42756C13.7285 7.69562 13.1768 8.07693 12.7365 8.54561C12.2962 9.0143 11.9776 9.55939 11.8023 10.1439ZM12.7315 13.8403C12.9672 13.5425 13.2769 13.2075 13.688 12.843C14.571 12.0604 15.6132 11.4512 16.8193 11.115L16.8569 11.1056C16.7567 10.9144 16.6626 10.7437 16.5679 10.583C15.4529 10.864 14.2783 11.0394 13.108 11.1303C12.5372 11.1749 12.0252 11.1943 11.6487 11.1975C11.6476 12.16 12.0303 13.0934 12.7321 13.8403H12.7315ZM18.3321 15.0903C18.0979 14.0689 17.7664 13.066 17.341 12.0919C16.1251 12.4737 15.1565 13.032 14.4077 13.698C14.1055 13.9619 13.8373 14.2533 13.6079 14.5672C14.4452 15.1076 15.4624 15.3989 16.5071 15.3976C17.1326 15.3984 17.7523 15.2944 18.3321 15.0914V15.0903ZM19.4696 14.5257C20.4177 13.8954 21.0637 12.9846 21.2836 11.968C21.0771 11.9233 20.8154 11.8787 20.5275 11.844C19.8875 11.7643 19.2381 11.7585 18.5963 11.8267C18.9577 12.7084 19.2494 13.6104 19.4696 14.5263V14.5257ZM16.5071 16.448C13.153 16.448 10.4341 14.0966 10.4341 11.1959C10.4341 8.2952 13.153 5.94385 16.5071 5.94385C19.8613 5.94385 22.5802 8.2952 22.5802 11.1959C22.5802 14.0966 19.8613 16.448 16.5071 16.448Z" fill="#2B2B2B"/>
</g>
</g>
<defs>
<filter id="filter0_d_2_476" x="0.0136719" y="0.391602" width="32.9863" height="29.6084" filterUnits="userSpaceOnUse" color-interpolation-filters="sRGB">
<feFlood flood-opacity="0" result="BackgroundImageFix"/>
<feColorMatrix in="SourceAlpha" type="matrix" values="0 0 0 0 0 0 0 0 0 0 0 0 0 0 0 0 0 0 127 0" result="hardAlpha"/>
<feOffset dy="4"/>
<feGaussianBlur stdDeviation="2"/>
<feComposite in2="hardAlpha" operator="out"/>
<feColorMatrix type="matrix" values="0 0 0 0 0 0 0 0 0 0 0 0 0 0 0 0 0 0 0.25 0"/>
<feBlend mode="normal" in2="BackgroundImageFix" result="effect1_dropShadow_2_476"/>
<feBlend mode="normal" in="SourceGraphic" in2="effect1_dropShadow_2_476" result="shape"/>
</filter>
<clipPath id="clip0_2_476">
<rect width="14.5753" height="12.605" fill="white" transform="translate(9.21924 4.89355)"/>
</clipPath>
</defs>
</svg>
