<svg width="40.000000" height="40.000000" viewBox="0 0 40 40" fill="none" xmlns="http://www.w3.org/2000/svg" xmlns:xlink="http://www.w3.org/1999/xlink">
	<desc>
			Created with Pixso.
	</desc>
	<defs>
		<clipPath id="clip2_6602">
			<rect id="Icons/Contact" width="18.000000" height="18.000000" transform="translate(11.000000 11.000000)" fill="white" fill-opacity="0"/>
		</clipPath>
	</defs>
	<circle id="Ellipse 14" cx="20.000000" cy="20.000000" r="20.000000" fill="#F0F0F6" fill-opacity="1.000000"/>
	<rect id="Icons/Contact" width="18.000000" height="18.000000" transform="translate(11.000000 11.000000)" fill="#FFFFFF" fill-opacity="0"/>
	<rect id="Icons/Contact" width="18.000000" height="18.000000" transform="translate(11.000000 11.000000)" fill="#FFFFFF" fill-opacity="0"/>
	<rect id="Icons/Contact" width="18.000000" height="18.000000" transform="translate(11.000000 11.000000)" fill="#FFFFFF" fill-opacity="0"/>
	<rect id="Icons/Contact" width="18.000000" height="18.000000" transform="translate(11.000000 11.000000)" fill="#727272" fill-opacity="0"/>
	<g clip-path="url(#clip2_6602)">
		<path id="Vector" d="M15.8413 25.25L12.5 27.875L12.5 14C12.5 13.8013 12.5791 13.6104 12.7197 13.4697C12.8604 13.3291 13.051 13.25 13.25 13.25L26.75 13.25C26.949 13.25 27.1396 13.3291 27.2803 13.4697C27.4209 13.6104 27.5 13.8013 27.5 14L27.5 24.5C27.5 24.6987 27.4209 24.8896 27.2803 25.0303C27.1396 25.1709 26.949 25.25 26.75 25.25L15.8413 25.25Z" fill="#767676" fill-opacity="1.000000" fill-rule="nonzero"/>
	</g>
</svg>
