<svg width="40.000000" height="40.000000" viewBox="0 0 40 40" fill="none" xmlns="http://www.w3.org/2000/svg" xmlns:xlink="http://www.w3.org/1999/xlink">
	<desc>
			Created with Pixso.
	</desc>
	<defs>
		<clipPath id="clip2_6662">
			<rect id="Icons/cv" width="18.000000" height="18.000000" transform="translate(11.000000 11.000000)" fill="white" fill-opacity="0"/>
		</clipPath>
	</defs>
	<circle id="Ellipse 11" cx="20.000000" cy="20.000000" r="20.000000" fill="#F0F0F6" fill-opacity="1.000000"/>
	<rect id="Icons/cv" width="18.000000" height="18.000000" transform="translate(11.000000 11.000000)" fill="#FFFFFF" fill-opacity="0"/>
	<rect id="Icons/cv" width="18.000000" height="18.000000" transform="translate(11.000000 11.000000)" fill="#FFFFFF" fill-opacity="0"/>
	<rect id="Icons/cv" width="18.000000" height="18.000000" transform="translate(11.000000 11.000000)" fill="#FFFFFF" fill-opacity="0"/>
	<g clip-path="url(#clip2_6662)">
		<path id="Vector" d="M23.7637 22.272L20.25 25.626L16.7363 22.272C14.103 22.3809 12 24.4375 12 26.9761L12 27.3135C12 28.2451 12.7917 29.001 13.7678 29.001L26.7322 29.001C27.7083 29.001 28.5 28.2451 28.5 27.3135L28.5 26.9761C28.5 24.4375 26.397 22.3809 23.7637 22.272ZM12.501 13.8062L12.7366 13.8589L12.7366 15.9121C12.4788 16.0601 12.2947 16.3164 12.2947 16.626C12.2947 16.9214 12.4641 17.1675 12.7034 17.3184L12.1289 19.5088C12.0664 19.7515 12.2063 20.001 12.4089 20.001L13.9482 20.001C14.1509 20.001 14.2908 19.7515 14.2283 19.5088L13.6536 17.3184C13.8931 17.1675 14.0625 16.9214 14.0625 16.626C14.0625 16.3164 13.8784 16.0601 13.6206 15.9121L13.6206 14.063L16.0513 14.6221C15.7346 15.2266 15.5356 15.9019 15.5356 16.626C15.5356 19.1113 17.646 21.126 20.25 21.126C22.854 21.126 24.9644 19.1113 24.9644 16.626C24.9644 15.9019 24.769 15.2266 24.4487 14.6221L27.9954 13.8062C28.6658 13.6519 28.6658 12.8535 27.9954 12.6987L20.9829 11.0815C20.5042 10.9727 19.9995 10.9727 19.5208 11.0815L12.501 12.6953C11.8342 12.8501 11.8342 13.6519 12.501 13.8062Z" fill="#767676" fill-opacity="1.000000" fill-rule="nonzero"/>
	</g>
</svg>
