<svg width="78.000000" height="78.000000" viewBox="0 0 78 78" fill="none" xmlns="http://www.w3.org/2000/svg" xmlns:xlink="http://www.w3.org/1999/xlink">
	<desc>
			Created with Pixso.
	</desc>
	<defs>
		<clipPath id="clip2_6020">
			<rect id="Icons/Photographer" width="78.000000" height="78.000000" fill="white" fill-opacity="0"/>
		</clipPath>
	</defs>
	<rect id="Icons/Photographer" width="78.000000" height="78.000000" fill="#FFFFFF" fill-opacity="0"/>
	<rect id="Icons/Photographer" width="78.000000" height="78.000000" fill="#FFFFFF" fill-opacity="0"/>
	<rect id="Icons/Photographer" width="78.000000" height="78.000000" fill="#FFFFFF" fill-opacity="0"/>
	<rect id="Icons/Photographer" width="78.000000" height="78.000000" fill="#FFFFFF" fill-opacity="0"/>
	<rect id="Icons/Photographer" width="78.000000" height="78.000000" fill="#FFFFFF" fill-opacity="0"/>
	<g clip-path="url(#clip2_6020)">
		<path id="Vector" d="M55.3545 72.9678L74.7124 72.9678L69.7432 58.0586C68.4434 54.1597 65.1274 51.2686 61.0874 50.5112L47.8062 48.0205L47.8062 44.9468C50.9878 42.6509 53.2334 39.1533 53.8853 35.1201C56.8545 34.6182 59.1289 32.0454 59.1289 28.9355L59.1289 20.1289C59.1289 9.03027 50.0986 0 39 0C27.9014 0 18.8706 9.03027 18.8706 20.1289L18.8706 28.9355C18.8706 32.0415 21.1338 34.6294 24.0981 35.1367C24.7524 39.1699 27.0103 42.6709 30.1934 44.9658L30.1934 48.0215L16.9106 50.5127C12.8721 51.27 9.55469 54.1611 8.25537 58.0596L3.28711 72.9678L22.645 72.9678L22.645 70.4517L19.2241 70.4517L21.3491 61.9497L18.9087 61.3408L16.6304 70.4517L6.77686 70.4517L10.6431 58.855C11.6533 55.8228 14.2334 53.5732 17.375 52.9834L25.3887 51.4814L27.438 60.7002C26.0996 61.2817 25.1611 62.6128 25.1611 64.1611L25.1611 74.2256C25.1611 76.3066 26.8545 78 28.9351 78L49.0645 78C51.145 78 52.8384 76.3066 52.8384 74.2256L52.8384 64.1611C52.8384 62.6128 51.8999 61.2817 50.5625 60.7002L52.6118 51.4814L60.626 52.9834C63.7671 53.5732 66.3462 55.8228 67.3579 58.855L71.2227 70.4517L61.3696 70.4517L59.0913 61.3408L56.6504 61.9497L58.7754 70.4517L55.3545 70.4517L55.3545 72.9678ZM50.1372 51.0171L48.3999 58.8345L47.5308 55.355L42.0366 55.355L46.9683 50.4233L50.1372 51.0171ZM46.1948 60.3872L31.8047 60.3872L32.4341 57.8711L45.5654 57.8711L46.1948 60.3872ZM39 54.834L32.7095 48.5435L32.7095 46.4224C34.627 47.3057 36.7539 47.8066 39 47.8066C41.2466 47.8066 43.373 47.2993 45.29 46.4165L45.29 48.5435L39 54.834ZM54.0967 32.478L54.0967 25.394C55.5571 25.915 56.6128 27.2988 56.6128 28.9365C56.6128 30.5747 55.5571 31.9575 54.0967 32.478ZM23.9028 32.4946C22.4385 31.9751 21.3867 30.5762 21.3867 28.9355C21.3867 27.2949 22.4385 25.896 23.9028 25.3765L23.9028 32.4946ZM21.3867 23.936L21.3867 20.1289C21.3867 10.417 29.2876 2.51611 39 2.51611C48.7119 2.51611 56.6128 10.417 56.6128 20.1289L56.6128 23.936C55.8682 23.3726 55.0073 22.9561 54.0562 22.7686C53.8589 21.2827 52.5981 20.1289 51.0596 20.1289C50.2607 20.1289 49.478 20.4536 48.8491 21.0825C46.7241 23.2075 44.0322 24.5625 41.1157 25.0029L41.1963 24.8418C41.4053 24.4214 41.5161 23.9521 41.5161 23.4829L41.5161 23.166C41.5161 21.4917 40.1533 20.1289 38.479 20.1289C37.6802 20.1289 36.8975 20.4536 36.3315 21.0186C33.6807 23.668 30.1646 25.1372 26.4189 25.1611L26.4189 22.645L25.1611 22.645C23.7393 22.645 22.4409 23.1372 21.3867 23.936ZM26.4189 32.7095L26.4189 27.6772C30.8364 27.6533 34.9854 25.9224 38.1089 22.7988C38.4121 22.4941 39 22.7422 39 23.166L39 23.4829C39 23.5635 38.981 23.644 38.9443 23.7168L36.9644 27.6772L39 27.6772C43.3931 27.6772 47.522 25.9678 50.6899 22.7988C50.9941 22.4941 51.5806 22.7422 51.5806 23.166L51.5806 32.7095C51.5806 39.6465 45.9365 45.2905 39 45.2905C32.063 45.2905 26.4189 39.6465 26.4189 32.7095ZM31.0312 50.4233L35.9629 55.355L30.4688 55.355L29.5996 58.8345L27.8623 51.0171L31.0312 50.4233ZM28.9351 75.4839C28.2422 75.4839 27.6772 74.9204 27.6772 74.2256L27.6772 64.1611C27.6772 63.4668 28.2422 62.9033 28.9351 62.9033L32.8491 62.9033C31.2124 64.5034 30.1934 66.7305 30.1934 69.1934C30.1934 71.6567 31.2124 73.8838 32.8491 75.4839L28.9351 75.4839ZM39 75.4839C35.5312 75.4839 32.7095 72.6621 32.7095 69.1934C32.7095 65.7251 35.5312 62.9033 39 62.9033C42.4683 62.9033 45.29 65.7251 45.29 69.1934C45.29 72.6621 42.4683 75.4839 39 75.4839ZM50.3223 74.2256C50.3223 74.9204 49.7573 75.4839 49.0645 75.4839L45.1504 75.4839C46.7871 73.8838 47.8062 71.6567 47.8062 69.1934C47.8062 66.7305 46.7871 64.5034 45.1504 62.9033L49.0645 62.9033C49.7573 62.9033 50.3223 63.4668 50.3223 64.1611L50.3223 74.2256Z" fill="#FFB400" fill-opacity="1.000000" fill-rule="nonzero"/>
		<path id="Vector" d="M39 65.4194C36.9189 65.4194 35.2256 67.1128 35.2256 69.1938C35.2256 71.2744 36.9189 72.9678 39 72.9678C41.0806 72.9678 42.7739 71.2744 42.7739 69.1938C42.7739 67.1128 41.0806 65.4194 39 65.4194ZM39 70.4517C38.3066 70.4517 37.7417 69.8882 37.7417 69.1938C37.7417 68.499 38.3066 67.9355 39 67.9355C39.6929 67.9355 40.2578 68.499 40.2578 69.1938C40.2578 69.8882 39.6929 70.4517 39 70.4517Z" fill="#FFB400" fill-opacity="1.000000" fill-rule="nonzero"/>
	</g>
</svg>
