<svg width="74.000000" height="74.000000" viewBox="0 0 74 74" fill="none" xmlns="http://www.w3.org/2000/svg" xmlns:xlink="http://www.w3.org/1999/xlink">
	<desc>
			Created with Pixso.
	</desc>
	<defs>
		<clipPath id="clip2_6154">
			<rect width="74.000000" height="74.000000" fill="white" fill-opacity="0"/>
		</clipPath>
	</defs>
	<rect width="74.000000" height="74.000000" fill="#FFFFFF" fill-opacity="0"/>
	<rect width="74.000000" height="74.000000" fill="#FFFFFF" fill-opacity="0"/>
	<rect width="74.000000" height="74.000000" fill="#FFFFFF" fill-opacity="0"/>
	<rect width="74.000000" height="74.000000" fill="#FFFFFF" fill-opacity="0"/>
	<g clip-path="url(#clip2_6154)">
		<path d="M32.375 38.1562L41.625 38.1562L41.625 40.4688L32.375 40.4688L32.375 38.1562Z" fill="#FFB400" fill-opacity="1.000000" fill-rule="nonzero"/>
		<path d="M35.8438 34.6875L38.1562 34.6875L38.1562 43.9375L35.8438 43.9375L35.8438 34.6875Z" fill="#FFB400" fill-opacity="1.000000" fill-rule="nonzero"/>
		<path d="M65.9062 38.1562L68.2188 38.1562L68.2188 40.4688L65.9062 40.4688L65.9062 38.1562Z" fill="#FFB400" fill-opacity="1.000000" fill-rule="nonzero"/>
		<path d="M56.6562 38.1562L58.9688 38.1562L58.9688 40.4688L56.6562 40.4688L56.6562 38.1562Z" fill="#FFB400" fill-opacity="1.000000" fill-rule="nonzero"/>
		<path d="M61.2812 33.5312L63.5938 33.5312L63.5938 35.8438L61.2812 35.8438L61.2812 33.5312Z" fill="#FFB400" fill-opacity="1.000000" fill-rule="nonzero"/>
		<path d="M61.2812 42.7812L63.5938 42.7812L63.5938 45.0938L61.2812 45.0938L61.2812 42.7812Z" fill="#FFB400" fill-opacity="1.000000" fill-rule="nonzero"/>
		<path d="M10.6597 20.3789L5.45654 13.875L10.6597 7.37109L12.4653 8.81641L8.41846 13.875L12.4653 18.9336L10.6597 20.3789Z" fill="#FFB400" fill-opacity="1.000000" fill-rule="nonzero"/>
		<path d="M28.6528 20.3789L26.8472 18.9336L30.895 13.875L26.8472 8.81641L28.6528 7.37109L33.8545 13.875L28.6528 20.3789Z" fill="#FFB400" fill-opacity="1.000000" fill-rule="nonzero"/>
		<path d="M14.7378 17.7368L22.834 8.48926L24.5737 10.0117L16.478 19.2603L14.7378 17.7368Z" fill="#FFB400" fill-opacity="1.000000" fill-rule="nonzero"/>
		<path d="M9.25 50.875L4.625 50.875L4.625 46.25L6.9375 46.25L6.9375 48.5625L9.25 48.5625L9.25 50.875Z" fill="#FFB400" fill-opacity="1.000000" fill-rule="nonzero"/>
		<path d="M70.5312 2.3125L3.46875 2.3125C1.55322 2.3125 0 3.86572 0 5.78125L0 52.0312C0 53.9468 1.55322 55.5 3.46875 55.5L27.75 55.5L27.75 61.2812C27.75 63.1968 26.1968 64.75 24.2812 64.75L18.5 64.75L18.5 71.6875L55.5 71.6875L55.5 64.75L49.7188 64.75C47.8032 64.75 46.25 63.1968 46.25 61.2812L46.25 55.5L70.5312 55.5C72.4468 55.5 74 53.9468 74 52.0312L74 5.78125C74 3.86572 72.4468 2.3125 70.5312 2.3125ZM53.1875 67.0625L53.1875 69.375L20.8125 69.375L20.8125 67.0625L53.1875 67.0625ZM37 62.4858C38.9155 62.4858 40.4688 60.9331 40.4688 59.0171L40.4688 55.5L43.9375 55.5L43.9375 61.2812C43.9419 62.5361 44.3589 63.7554 45.1235 64.75L28.8765 64.75C29.6411 63.7554 30.0581 62.5361 30.0625 61.2812L30.0625 55.5L33.5312 55.5L33.5312 59.0171C33.5312 60.9331 35.0845 62.4858 37 62.4858ZM35.8438 59.0171L35.8438 55.5L38.1562 55.5L38.1562 59.0171C38.1562 59.6558 37.6387 60.1733 37 60.1733C36.3613 60.1733 35.8438 59.6558 35.8438 59.0171ZM71.6875 52.0312C71.6875 52.6699 71.1699 53.1875 70.5312 53.1875L3.46875 53.1875C2.83008 53.1875 2.3125 52.6699 2.3125 52.0312L2.3125 41.625L25.6689 41.625C26.6265 46.332 30.3955 49.9551 35.1367 50.7261C39.8774 51.4971 44.6011 49.2549 47.0005 45.0938L52.4351 45.0938C54.3726 48.4624 57.8774 50.6289 61.7573 50.856C65.6367 51.0825 69.3701 49.3398 71.6875 46.2202L71.6875 52.0312ZM62.4375 48.5625C58.9229 48.5708 55.7109 46.5757 54.1606 43.4219L53.8408 42.7812L45.5967 42.7812L45.2769 43.4219C43.2485 47.5107 38.542 49.5098 34.1919 48.1294C29.8413 46.7485 27.1479 42.4019 27.8496 37.8916C28.5498 33.3818 32.436 30.0576 37 30.0625L62.4375 30.0625C67.5464 30.0625 71.6875 34.2036 71.6875 39.3125C71.6875 44.4214 67.5464 48.5625 62.4375 48.5625ZM71.6875 32.4048C69.5127 29.4795 66.083 27.7534 62.4375 27.75L37 27.75C30.6167 27.7568 25.4443 32.9292 25.4375 39.3125L2.3125 39.3125L2.3125 5.78125C2.3125 5.14258 2.83008 4.625 3.46875 4.625L70.5312 4.625C71.1699 4.625 71.6875 5.14258 71.6875 5.78125L71.6875 32.4048Z" fill="#FFB400" fill-opacity="1.000000" fill-rule="nonzero"/>
		<path d="M47.4062 38.1562L52.0312 38.1562L52.0312 40.4688L47.4062 40.4688L47.4062 38.1562Z" fill="#FFB400" fill-opacity="1.000000" fill-rule="nonzero"/>
		<path d="M34.6875 9.25L43.9375 9.25L43.9375 11.5625L34.6875 11.5625L34.6875 9.25Z" fill="#FFB400" fill-opacity="1.000000" fill-rule="nonzero"/>
		<path d="M48.5625 9.25L67.0625 9.25L67.0625 11.5625L48.5625 11.5625L48.5625 9.25Z" fill="#FFB400" fill-opacity="1.000000" fill-rule="nonzero"/>
		<path d="M50.875 13.875L67.0625 13.875L67.0625 16.1875L50.875 16.1875L50.875 13.875Z" fill="#FFB400" fill-opacity="1.000000" fill-rule="nonzero"/>
		<path d="M37 13.875L46.25 13.875L46.25 16.1875L37 16.1875L37 13.875Z" fill="#FFB400" fill-opacity="1.000000" fill-rule="nonzero"/>
		<path d="M34.6875 18.5L57.8125 18.5L57.8125 20.8125L34.6875 20.8125L34.6875 18.5Z" fill="#FFB400" fill-opacity="1.000000" fill-rule="nonzero"/>
		<path d="M62.4375 18.5L67.0625 18.5L67.0625 20.8125L62.4375 20.8125L62.4375 18.5Z" fill="#FFB400" fill-opacity="1.000000" fill-rule="nonzero"/>
		<path d="M6.9375 23.125L18.5 23.125L18.5 25.4375L6.9375 25.4375L6.9375 23.125Z" fill="#FFB400" fill-opacity="1.000000" fill-rule="nonzero"/>
		<path d="M23.125 23.125L45.0938 23.125L45.0938 25.4375L23.125 25.4375L23.125 23.125Z" fill="#FFB400" fill-opacity="1.000000" fill-rule="nonzero"/>
		<path d="M48.5625 23.125L67.0625 23.125L67.0625 25.4375L48.5625 25.4375L48.5625 23.125Z" fill="#FFB400" fill-opacity="1.000000" fill-rule="nonzero"/>
		<path d="M6.9375 27.75L25.4375 27.75L25.4375 30.0625L6.9375 30.0625L6.9375 27.75Z" fill="#FFB400" fill-opacity="1.000000" fill-rule="nonzero"/>
		<path d="M6.9375 32.375L16.1875 32.375L16.1875 34.6875L6.9375 34.6875L6.9375 32.375Z" fill="#FFB400" fill-opacity="1.000000" fill-rule="nonzero"/>
		<path d="M18.5 32.375L23.125 32.375L23.125 34.6875L18.5 34.6875L18.5 32.375Z" fill="#FFB400" fill-opacity="1.000000" fill-rule="nonzero"/>
	</g>
</svg>
