<svg width="76.000000" height="76.000000" viewBox="0 0 76 76" fill="none" xmlns="http://www.w3.org/2000/svg" xmlns:xlink="http://www.w3.org/1999/xlink">
	<desc>
			Created with Pixso.
	</desc>
	<defs>
		<clipPath id="clip2_6449">
			<rect id="Icons/illustration" width="76.000000" height="76.000000" fill="white" fill-opacity="0"/>
		</clipPath>
	</defs>
	<rect id="Icons/illustration" width="68.000000" height="68.000000" transform="translate(0.000000 8.000000)" fill="#FFFFFF" fill-opacity="0"/>
	<rect id="Icons/illustration" width="68.000000" height="68.000000" transform="translate(0.000000 8.000000)" fill="#FFFFFF" fill-opacity="0"/>
	<rect id="Icons/illustration" width="76.000000" height="76.000000" fill="#FFFFFF" fill-opacity="0"/>
	<rect id="Icons/illustration" width="76.000000" height="76.000000" fill="#FFFFFF" fill-opacity="0"/>
	<rect id="Icons/illustration" width="76.000000" height="76.000000" fill="#FFFFFF" fill-opacity="0"/>
	<g clip-path="url(#clip2_6449)">
		<path id="Vector" d="M35.3281 55.1431C34.7134 55.1431 34.2148 55.6416 34.2148 56.2563C34.2148 56.8711 34.7134 57.3696 35.3281 57.3696L40.6719 57.3696C41.2866 57.3696 41.7852 56.8711 41.7852 56.2563C41.7852 55.6416 41.2866 55.1431 40.6719 55.1431L35.3281 55.1431Z" fill="#FFB400" fill-opacity="1.000000" fill-rule="nonzero"/>
		<path id="Vector" d="M13.3594 37.8564L20.7183 37.8564C21.168 39.0264 22.3003 39.8604 23.6265 39.8604C24.9526 39.8604 26.085 39.0264 26.5342 37.8564L28.0054 37.8564C28.6201 37.8564 29.1187 37.3579 29.1187 36.7432C29.1187 36.1284 28.6201 35.6299 28.0054 35.6299L26.5342 35.6299C26.085 34.46 24.9526 33.626 23.6265 33.626C22.3003 33.626 21.168 34.46 20.7183 35.6299L13.3594 35.6299C12.7446 35.6299 12.2461 36.1284 12.2461 36.7432C12.2461 37.3579 12.7446 37.8564 13.3594 37.8564ZM23.6265 35.8525C24.1177 35.8525 24.5171 36.252 24.5171 36.7432C24.5171 37.2344 24.1177 37.6338 23.6265 37.6338C23.1353 37.6338 22.7358 37.2344 22.7358 36.7432C22.7358 36.252 23.1353 35.8525 23.6265 35.8525Z" fill="#FFB400" fill-opacity="1.000000" fill-rule="nonzero"/>
		<path id="Vector" d="M13.3594 31.4736L14.7808 31.4736C15.2305 32.6436 16.3628 33.4775 17.689 33.4775C19.0151 33.4775 20.1475 32.6436 20.5967 31.4736L28.0054 31.4736C28.6201 31.4736 29.1187 30.9751 29.1187 30.3604C29.1187 29.7456 28.6201 29.2471 28.0054 29.2471L20.5967 29.2471C20.1475 28.0771 19.0151 27.2432 17.689 27.2432C16.3628 27.2432 15.2305 28.0771 14.7808 29.2471L13.3594 29.2471C12.7446 29.2471 12.2461 29.7456 12.2461 30.3604C12.2461 30.9751 12.7446 31.4736 13.3594 31.4736ZM17.689 29.4697C18.1802 29.4697 18.5796 29.8691 18.5796 30.3604C18.5796 30.8516 18.1802 31.251 17.689 31.251C17.1978 31.251 16.7983 30.8516 16.7983 30.3604C16.7983 29.8691 17.1978 29.4697 17.689 29.4697Z" fill="#FFB400" fill-opacity="1.000000" fill-rule="nonzero"/>
		<path id="Vector" d="M29.3413 20.1182C29.3413 20.7329 28.8428 21.2314 28.228 21.2314C27.6133 21.2314 27.1147 20.7329 27.1147 20.1182C27.1147 19.5034 27.6133 19.0049 28.228 19.0049C28.8428 19.0049 29.3413 19.5034 29.3413 20.1182Z" fill="#FFB400" fill-opacity="1.000000" fill-rule="evenodd"/>
		<path id="Vector" d="M26.2734 20.1182C26.2734 20.7329 25.7749 21.2314 25.1602 21.2314C24.5454 21.2314 24.0469 20.7329 24.0469 20.1182C24.0469 19.5034 24.5454 19.0049 25.1602 19.0049C25.7749 19.0049 26.2734 19.5034 26.2734 20.1182Z" fill="#FFB400" fill-opacity="1.000000" fill-rule="evenodd"/>
		<path id="Vector" d="M23.2056 20.1182C23.2056 20.7329 22.707 21.2314 22.0923 21.2314C21.4775 21.2314 20.979 20.7329 20.979 20.1182C20.979 19.5034 21.4775 19.0049 22.0923 19.0049C22.707 19.0049 23.2056 19.5034 23.2056 20.1182Z" fill="#FFB400" fill-opacity="1.000000" fill-rule="evenodd"/>
		<path id="Vector" d="M72.6602 7.49365L72.2432 7.49365L72.5542 7.18262C73.4858 6.25098 73.4858 4.73535 72.5542 3.8042L70.1172 1.3667C69.1855 0.435547 67.6699 0.435547 66.7388 1.3667L60.6123 7.49316L3.33984 7.49316C1.49854 7.49316 0 8.9917 0 10.833L0 57.0664C0 59.3169 1.83105 61.1484 4.08203 61.1484L30.4512 61.1484L30.4512 69.0234L25.0859 69.0234C23.6538 69.0234 22.4883 70.189 22.4883 71.6211L22.4883 72.7334C22.4883 74.166 23.6538 75.3311 25.0859 75.3311L50.9141 75.3311C52.3462 75.3311 53.5117 74.166 53.5117 72.7334L53.5117 71.6211C53.5117 70.189 52.3462 69.0234 50.9141 69.0234L45.5488 69.0234L45.5488 61.1484L57.4453 61.1484C58.0601 61.1484 58.5586 60.6499 58.5586 60.0352C58.5586 59.4199 58.0601 58.9219 57.4453 58.9219L4.08203 58.9219C3.05908 58.9219 2.22656 58.0894 2.22656 57.0664L2.22656 53.771L73.7734 53.771L73.7734 57.0664C73.7734 58.0894 72.9409 58.9219 71.918 58.9219L62.6406 58.9219C62.0259 58.9219 61.5273 59.4199 61.5273 60.0352C61.5273 60.6499 62.0259 61.1484 62.6406 61.1484L71.918 61.1484C74.1689 61.1484 76 59.3169 76 57.0664L76 10.8335C76 8.9917 74.5015 7.49365 72.6602 7.49365ZM50.9141 71.2505C51.1187 71.2505 51.2852 71.417 51.2852 71.6216L51.2852 72.7339C51.2852 72.9385 51.1187 73.105 50.9141 73.105L25.0859 73.105C24.8813 73.105 24.7148 72.9385 24.7148 72.7339L24.7148 71.6216C24.7148 71.417 24.8813 71.2505 25.0859 71.2505L50.9141 71.2505ZM32.6777 61.1484L43.3223 61.1484L43.3223 69.0239L32.6777 69.0239L32.6777 61.1484ZM68.313 2.94141C68.3765 2.87793 68.4795 2.87842 68.543 2.94141L70.9795 5.37842C71.043 5.44189 71.043 5.54492 70.9795 5.6084L68.6543 7.93359L65.9878 5.2666L68.313 2.94141ZM64.4131 6.84131L67.0796 9.50781L66.3032 10.2847L63.6367 7.61768L64.4131 6.84131ZM62.0625 9.19238L64.729 11.8589L51.5552 25.0327L48.8882 22.3662L62.0625 9.19238ZM60.4141 19.3706C61.9282 19.3706 63.1602 20.6025 63.1602 22.1167C63.1602 23.6309 61.9282 24.8628 60.4141 24.8628C58.8999 24.8628 57.668 23.6309 57.668 22.1167C57.668 22.0991 57.6704 22.082 57.6704 22.064L60.3623 19.373C60.3794 19.373 60.3965 19.3706 60.4141 19.3706ZM49.6216 26.2485L46.3267 27.5942L47.6729 24.2993L49.6216 26.2485ZM73.7734 51.5444L2.22656 51.5444L2.22656 10.8335C2.22656 10.2197 2.72607 9.72021 3.33984 9.72021L58.3857 9.72021L56.6885 11.4175L18.8516 11.4175C18.2368 11.4175 17.7383 11.916 17.7383 12.5308C17.7383 13.1455 18.2368 13.644 18.8516 13.644L54.4619 13.644L46.6094 21.4971C46.3877 21.7212 46.2139 21.9824 46.0947 22.2744L43.6079 28.3628C43.3799 28.9224 43.5083 29.5596 43.9351 29.9863C44.2217 30.2729 44.603 30.4248 44.9917 30.4248C45.1826 30.4248 45.3745 30.3882 45.5586 30.3135L51.647 27.8267C51.9307 27.7109 52.1851 27.5425 52.4048 27.3296L55.7915 23.9434C56.521 25.7837 58.3169 27.0894 60.4141 27.0894C63.1562 27.0894 65.3867 24.8589 65.3867 22.1167C65.3867 20.02 64.0815 18.2241 62.2417 17.4941L66.0918 13.6445L69.8491 13.6445L69.8491 47.6206L69.2593 47.6206L65.2246 40.6328C64.9175 40.1001 64.2363 39.9175 63.7041 40.2251C63.1714 40.5327 62.9893 41.2134 63.2964 41.7461L66.6885 47.6206L51.1367 47.6206L49.4688 44.7314L57.2446 31.2637L60.6987 37.2466C61.0063 37.7793 61.687 37.9619 62.2197 37.6543C62.752 37.3467 62.9346 36.666 62.627 36.1333L58.9419 29.7505C58.5874 29.1367 57.9531 28.7705 57.2441 28.7705C56.5356 28.7705 55.9009 29.1367 55.5469 29.7505L48.1826 42.5054L38.7344 26.1396C38.3799 25.5264 37.7456 25.1597 37.0366 25.1597C36.3281 25.1597 35.6934 25.5264 35.3394 26.1396L32.8291 30.4878L32.8291 18.5542C32.8291 17.1221 31.6636 15.9565 30.2314 15.9565L11.1328 15.9565C9.70068 15.9565 8.53516 17.1221 8.53516 18.5542L8.53516 42.8979C8.53516 43.9214 9.36768 44.7534 10.3906 44.7534L24.5928 44.7534L22.9375 47.6206L6.15088 47.6206L6.15088 13.644L13.6562 13.644C14.271 13.644 14.7695 13.1455 14.7695 12.5308C14.7695 11.916 14.271 11.4175 13.6562 11.4175L5.77979 11.4175C4.75635 11.4175 3.92432 12.25 3.92432 13.2729L3.92432 47.9917C3.92432 49.0146 4.75635 49.8472 5.77979 49.8472L70.2202 49.8472C71.2437 49.8472 72.0757 49.0146 72.0757 47.9917L72.0757 13.2729C72.0757 12.25 71.2437 11.4175 70.2202 11.4175L68.3188 11.4175L70.0166 9.72021L72.6602 9.72021C73.2739 9.72021 73.7734 10.2197 73.7734 10.8335L73.7734 51.5444ZM30.603 24.7197L30.603 42.5269L10.7617 42.5269L10.7617 24.7197L30.603 24.7197ZM10.7617 22.4932L10.7617 18.5542C10.7617 18.3496 10.9282 18.1831 11.1328 18.1831L30.2319 18.1831C30.4365 18.1831 30.603 18.3496 30.603 18.5542L30.603 22.4932L10.7617 22.4932ZM27.1641 44.7534L30.9741 44.7534C31.9971 44.7534 32.8296 43.9209 32.8296 42.8979L32.8296 40.5396C33.1079 40.6733 33.418 40.7456 33.7427 40.7456C34.5029 40.7456 35.1831 40.3525 35.563 39.6943L37.4575 36.4131C37.5151 36.3135 37.6025 36.293 37.6655 36.293C37.729 36.293 37.8169 36.3135 37.874 36.4131L39.042 38.436C39.4219 39.0942 40.1025 39.4873 40.8628 39.4873C41.6226 39.4873 42.3032 39.0942 42.6831 38.436L42.9731 37.9336L48.5654 47.6201L25.5088 47.6201L27.1641 44.7534ZM32.8296 36.813L32.8296 34.9404L37.0371 27.6528L41.6875 35.707L40.8623 37.1362L39.8022 35.2993C39.356 34.5273 38.5576 34.0659 37.6655 34.0659C36.7739 34.0659 35.9751 34.5273 35.5293 35.2993L33.7422 38.3945L32.8296 36.813Z" fill="#FFB400" fill-opacity="1.000000" fill-rule="nonzero"/>
	</g>
</svg>
