<svg width="40.000000" height="40.000000" viewBox="0 0 40 40" fill="none" xmlns="http://www.w3.org/2000/svg" xmlns:xlink="http://www.w3.org/1999/xlink">
	<desc>
			Created with Pixso.
	</desc>
	<defs>
		<clipPath id="clip2_6671">
			<rect id="file-code" width="16.500000" height="18.000000" transform="translate(12.000000 11.000000)" fill="white" fill-opacity="0"/>
		</clipPath>
		<clipPath id="clip2_6670">
			<rect id="Icons/Services" width="18.000000" height="18.000000" transform="translate(11.000000 11.000000)" fill="white" fill-opacity="0"/>
		</clipPath>
	</defs>
	<circle id="Ellipse 10" cx="20.000000" cy="20.000000" r="20.000000" fill="#F0F0F6" fill-opacity="1.000000"/>
	<rect id="Icons/Services" width="18.000000" height="18.000000" transform="translate(11.000000 11.000000)" fill="#FFFFFF" fill-opacity="0"/>
	<rect id="Icons/Services" width="18.000000" height="18.000000" transform="translate(11.000000 11.000000)" fill="#FFFFFF" fill-opacity="0"/>
	<g clip-path="url(#clip2_6670)">
		<rect id="file-code" width="16.500000" height="18.000000" transform="translate(12.000000 11.000000)" fill="#000000" fill-opacity="0"/>
		<g clip-path="url(#clip2_6671)">
			<path id="Vector" d="M28.5 15.2871L28.5 15.5L23 15.5L23 11L23.2603 11C23.5339 11 23.7961 11.0889 23.9895 11.2471L28.198 14.6904C28.3914 14.8486 28.5 15.063 28.5 15.2871ZM22.6562 16.625C22.0891 16.625 21.625 16.2451 21.625 15.7812L21.625 11L13.0312 11C12.4617 11 12 11.3779 12 11.8438L12 28.1562C12 28.6221 12.4617 29 13.0312 29L27.4688 29C28.0383 29 28.5 28.6221 28.5 28.1562L28.5 16.625L22.6562 16.625ZM17.2939 25.0801C17.2732 25.0986 17.248 25.1133 17.2205 25.1235C17.1926 25.1338 17.1626 25.1392 17.1323 25.1401C17.1018 25.1411 17.0713 25.1367 17.043 25.1279C17.0144 25.1191 16.9883 25.106 16.9661 25.0889L14.1787 22.9512C14.1558 22.9331 14.1372 22.9116 14.1245 22.8882C14.1121 22.8643 14.1055 22.8384 14.1055 22.8125C14.1055 22.7866 14.1121 22.7607 14.1245 22.7368C14.1372 22.7134 14.1558 22.6919 14.1787 22.6738L16.9661 20.5361C16.9883 20.519 17.0144 20.5059 17.043 20.4971C17.0713 20.4883 17.1018 20.4839 17.1323 20.4849C17.1626 20.4858 17.1926 20.4912 17.2205 20.5015C17.248 20.5117 17.2732 20.5264 17.2939 20.5449L18.1353 21.2788C18.1565 21.2974 18.1731 21.3193 18.1838 21.3433C18.1946 21.3672 18.1992 21.3926 18.1978 21.418C18.1963 21.4434 18.1885 21.4683 18.175 21.4912C18.1616 21.5142 18.1426 21.5347 18.1194 21.5513L16.3677 22.8125L18.1194 24.0737C18.1426 24.0903 18.1616 24.1108 18.175 24.1338C18.1885 24.1567 18.1963 24.1816 18.1978 24.207C18.1992 24.2324 18.1946 24.2578 18.1838 24.2817C18.1731 24.3057 18.1565 24.3276 18.1353 24.3462L17.2939 25.0801ZM19.498 26.855L18.3184 26.5747C18.2593 26.5605 18.2095 26.5278 18.1799 26.4839C18.1501 26.4399 18.1431 26.3877 18.1604 26.3394L20.8003 18.8994C20.8174 18.8511 20.8574 18.8105 20.9114 18.7861C20.9653 18.7617 21.0288 18.7559 21.0879 18.77L22.2673 19.0503C22.2966 19.0571 22.324 19.0688 22.3477 19.0845C22.3716 19.1001 22.3914 19.1191 22.406 19.1411C22.4207 19.1631 22.4299 19.187 22.4333 19.2119C22.4368 19.2363 22.4341 19.2617 22.4255 19.2856L19.7856 26.7256C19.7771 26.7495 19.7629 26.772 19.7439 26.791C19.7249 26.8105 19.7014 26.8271 19.6746 26.8389C19.6479 26.8511 19.6187 26.8584 19.5884 26.8613C19.5581 26.8643 19.5273 26.8618 19.498 26.855ZM26.4072 22.9512L23.6199 25.0889C23.5977 25.106 23.5715 25.1191 23.543 25.1279C23.5146 25.1367 23.4841 25.1411 23.4536 25.1401C23.4233 25.1392 23.3933 25.1338 23.3655 25.1235C23.3379 25.1133 23.3127 25.0986 23.292 25.0801L22.4507 24.3462C22.4294 24.3276 22.4128 24.3057 22.4021 24.2817C22.3914 24.2578 22.3867 24.2324 22.3882 24.207C22.3896 24.1816 22.3972 24.1567 22.4109 24.1338C22.4243 24.1108 22.4434 24.0903 22.4666 24.0737L24.2183 22.8125L22.4666 21.5513C22.4434 21.5347 22.4243 21.5142 22.4109 21.4912C22.3975 21.4683 22.3896 21.4434 22.3882 21.418C22.3867 21.3926 22.3914 21.3672 22.4021 21.3433C22.4128 21.3193 22.4294 21.2974 22.4507 21.2788L23.292 20.5449C23.3127 20.5264 23.3379 20.5117 23.3655 20.5015C23.3933 20.4912 23.4233 20.4858 23.4539 20.4849C23.4841 20.4839 23.5146 20.4883 23.5432 20.4971C23.5715 20.5059 23.5977 20.519 23.6199 20.5361L26.4072 22.6738C26.4304 22.6919 26.4487 22.7134 26.4614 22.7368C26.4739 22.7607 26.4805 22.7866 26.4805 22.8125C26.4805 22.8384 26.4739 22.8643 26.4614 22.8882C26.4487 22.9116 26.4302 22.9331 26.4072 22.9512Z" fill="#767676" fill-opacity="1.000000" fill-rule="nonzero"/>
		</g>
	</g>
</svg>
