<svg width="86.000000" height="20.000000" viewBox="0 0 86 20" fill="none" xmlns="http://www.w3.org/2000/svg" xmlns:xlink="http://www.w3.org/1999/xlink">
	<desc>
			Created with Pixso.
	</desc>
	<defs>
		<clipPath id="clip2_649">
			<rect id="Frame" width="20.000000" height="20.000000" transform="translate(66.000000 0.000000)" fill="white" fill-opacity="0"/>
		</clipPath>
	</defs>
	<path id="ORDER NOW" d="M7.76953 9.92773Q7.76953 11.1875 7.32422 12.1367Q6.87891 13.0859 6.0498 13.6016Q5.2207 14.1172 4.14844 14.1172Q3.08789 14.1172 2.25586 13.6074Q1.42383 13.0977 0.966797 12.1514Q0.509766 11.2051 0.503906 9.97461L0.503906 9.55273Q0.503906 8.29297 0.958008 7.33496Q1.41211 6.37695 2.24121 5.86426Q3.07031 5.35156 4.13672 5.35156Q5.20312 5.35156 6.03223 5.86426Q6.86133 6.37695 7.31543 7.33496Q7.76953 8.29297 7.76953 9.54688L7.76953 9.92773ZM5.98828 9.54102Q5.98828 8.19922 5.50781 7.50195Q5.02734 6.80469 4.13672 6.80469Q3.25195 6.80469 2.77148 7.49316Q2.29102 8.18164 2.28516 9.51172L2.28516 9.92773Q2.28516 11.2344 2.76562 11.9551Q3.24609 12.6758 4.14844 12.6758Q5.0332 12.6758 5.50781 11.9814Q5.98242 11.2871 5.98828 9.95703L5.98828 9.54102ZM12.2051 10.877L10.8047 10.877L10.8047 14L9.04688 14L9.04688 5.46875L12.2168 5.46875Q13.7285 5.46875 14.5488 6.14258Q15.3691 6.81641 15.3691 8.04688Q15.3691 8.91992 14.9912 9.50293Q14.6133 10.0859 13.8457 10.4316L15.6914 13.918L15.6914 14L13.8047 14L12.2051 10.877ZM10.8047 9.45312L12.2227 9.45312Q12.8848 9.45312 13.248 9.11621Q13.6113 8.7793 13.6113 8.1875Q13.6113 7.58398 13.2686 7.23828Q12.9258 6.89258 12.2168 6.89258L10.8047 6.89258L10.8047 9.45312ZM16.7051 14L16.7051 5.46875L19.3301 5.46875Q20.4551 5.46875 21.3428 5.97559Q22.2305 6.48242 22.7285 7.41699Q23.2266 8.35156 23.2266 9.54102L23.2266 9.93359Q23.2266 11.123 22.7373 12.0488Q22.248 12.9746 21.3574 13.4844Q20.4668 13.9941 19.3477 14L16.7051 14ZM18.4629 6.89258L18.4629 12.5879L19.3125 12.5879Q20.3438 12.5879 20.8887 11.9141Q21.4336 11.2402 21.4453 9.98633L21.4453 9.53516Q21.4453 8.23438 20.9062 7.56348Q20.3672 6.89258 19.3301 6.89258L18.4629 6.89258ZM29.6367 10.3027L26.2617 10.3027L26.2617 12.5879L30.2227 12.5879L30.2227 14L24.5039 14L24.5039 5.46875L30.2109 5.46875L30.2109 6.89258L26.2617 6.89258L26.2617 8.92578L29.6367 8.92578L29.6367 10.3027ZM34.4121 10.877L33.0117 10.877L33.0117 14L31.2539 14L31.2539 5.46875L34.4238 5.46875Q35.9355 5.46875 36.7559 6.14258Q37.5762 6.81641 37.5762 8.04688Q37.5762 8.91992 37.1982 9.50293Q36.8203 10.0859 36.0527 10.4316L37.8984 13.918L37.8984 14L36.0117 14L34.4121 10.877ZM33.0117 9.45312L34.4297 9.45312Q35.0918 9.45312 35.4551 9.11621Q35.8184 8.7793 35.8184 8.1875Q35.8184 7.58398 35.4756 7.23828Q35.1328 6.89258 34.4238 6.89258L33.0117 6.89258L33.0117 9.45312ZM48.8379 14L47.0801 14L43.6582 8.38672L43.6582 14L41.9004 14L41.9004 5.46875L43.6582 5.46875L47.0859 11.0938L47.0859 5.46875L48.8379 5.46875L48.8379 14ZM57.3809 9.92773Q57.3809 11.1875 56.9355 12.1367Q56.4902 13.0859 55.6611 13.6016Q54.832 14.1172 53.7598 14.1172Q52.6992 14.1172 51.8672 13.6074Q51.0352 13.0977 50.5781 12.1514Q50.1211 11.2051 50.1152 9.97461L50.1152 9.55273Q50.1152 8.29297 50.5693 7.33496Q51.0234 6.37695 51.8525 5.86426Q52.6816 5.35156 53.748 5.35156Q54.8145 5.35156 55.6436 5.86426Q56.4727 6.37695 56.9268 7.33496Q57.3809 8.29297 57.3809 9.54688L57.3809 9.92773ZM55.5996 9.54102Q55.5996 8.19922 55.1191 7.50195Q54.6387 6.80469 53.748 6.80469Q52.8633 6.80469 52.3828 7.49316Q51.9023 8.18164 51.8965 9.51172L51.8965 9.92773Q51.8965 11.2344 52.377 11.9551Q52.8574 12.6758 53.7598 12.6758Q54.6445 12.6758 55.1191 11.9814Q55.5938 11.2871 55.5996 9.95703L55.5996 9.54102ZM65.3027 11.5391L66.4512 5.46875L68.2031 5.46875L66.3105 14L64.541 14L63.1523 8.29297L61.7637 14L59.9941 14L58.1016 5.46875L59.8535 5.46875L61.0078 11.5273L62.4141 5.46875L63.9023 5.46875L65.3027 11.5391Z" fill="#FFB400" fill-opacity="1.000000" fill-rule="evenodd"/>
	<rect id="Frame" width="20.000000" height="20.000000" transform="translate(66.000000 0.000000)" fill="#FFFFFF" fill-opacity="0"/>
	<g clip-path="url(#clip2_649)">
		<path id="Vector" d="M76.1436 9.99951L73.7861 7.64307L74.9644 6.46387L78.5005 9.99951L74.9644 13.5356L73.7861 12.3564L76.1436 9.99951Z" fill="#FFB400" fill-opacity="1.000000" fill-rule="nonzero"/>
	</g>
</svg>
