<svg width="74.000000" height="74.000000" viewBox="0 0 74 74" fill="none" xmlns="http://www.w3.org/2000/svg" xmlns:xlink="http://www.w3.org/1999/xlink">
	<desc>
			Created with Pixso.
	</desc>
	<defs>
		<clipPath id="clip2_6360">
			<rect id="Icons/Microphone" width="74.000000" height="74.000000" fill="white" fill-opacity="0"/>
		</clipPath>
	</defs>
	<rect id="Icons/Microphone" width="74.000000" height="74.000000" fill="#FFFFFF" fill-opacity="0"/>
	<rect id="Icons/Microphone" width="74.000000" height="74.000000" fill="#FFFFFF" fill-opacity="0"/>
	<rect id="Icons/Microphone" width="74.000000" height="74.000000" fill="#FFFFFF" fill-opacity="0"/>
	<rect id="Icons/Microphone" width="74.000000" height="74.000000" fill="#FFFFFF" fill-opacity="0"/>
	<rect id="Icons/Microphone" width="74.000000" height="74.000000" fill="#FFFFFF" fill-opacity="0"/>
	<g clip-path="url(#clip2_6360)">
		<path id="Vector" d="M36.9995 0C29.0176 0 22.5215 6.75342 22.5215 15.0527L22.5215 37C22.5215 45.3008 29.0176 52.0527 36.9995 52.0527C44.9819 52.0527 51.478 45.3008 51.478 37L51.478 15.0527C51.478 6.75342 44.9819 0 36.9995 0ZM36.9995 48.835C31.3115 48.835 26.606 44.374 25.8545 38.6089L48.1431 38.6089C47.3936 44.376 42.688 48.835 36.9995 48.835ZM48.2607 35.3911L25.7388 35.3911L25.7388 15.0527C25.7388 8.52588 30.79 3.21729 36.9995 3.21729C43.2095 3.21729 48.2607 8.52588 48.2607 15.0527L48.2607 35.3911Z" fill="#FFB400" fill-opacity="1.000000" fill-rule="nonzero"/>
		<path id="Vector" d="M59.522 28.9565C58.6338 28.9565 57.9131 29.6772 57.9131 30.5654L57.9131 37C57.9131 48.5312 48.5312 57.9131 37 57.9131C25.4688 57.9131 16.0869 48.5312 16.0869 37L16.0869 30.5654C16.0869 29.6772 15.3662 28.9565 14.4785 28.9565C13.5903 28.9565 12.8696 29.6772 12.8696 30.5654L12.8696 37C12.8696 49.7617 22.8354 60.2153 35.3916 61.0483L35.3916 70.7827L27.3477 70.7827C26.46 70.7827 25.7393 71.5034 25.7393 72.3911C25.7393 73.2793 26.46 74 27.3477 74L46.6523 74C47.54 74 48.2607 73.2793 48.2607 72.3911C48.2607 71.5034 47.54 70.7827 46.6523 70.7827L38.6089 70.7827L38.6089 61.0483C51.1646 60.2153 61.1304 49.7617 61.1304 37L61.1304 30.5654C61.1304 29.6772 60.4097 28.9565 59.522 28.9565Z" fill="#FFB400" fill-opacity="1.000000" fill-rule="nonzero"/>
	</g>
</svg>
